<svg width="240" height="374" viewBox="0 0 240 374" fill="none" xmlns="http://www.w3.org/2000/svg">
<mask id="path-1-outside-1_240_621" maskUnits="userSpaceOnUse" x="-0.999995" y="-1.00004" width="240" height="374" fill="black">
<rect fill="white" x="-0.999995" y="-1.00004" width="240" height="374"/>
<path d="M146 356.707H3.81251L3.81251 286.687H22.7578L22.7578 336.297H65.2383L65.2383 286.687H83.793V336.297H146V356.707ZM84.5742 193.816L30.5703 213.836L84.5742 234.246L84.5742 193.816ZM104.594 241.57L146 257.586V279.363L3.81251 223.797V203.777L146 148.211V170.77L104.594 186.395L104.594 241.57ZM112.406 37.4687C106.677 32.3906 100.785 28.6796 94.7305 26.3359C88.6107 23.927 81.6445 22.7226 73.832 22.7226C67.2565 22.7226 60.9414 23.927 54.8867 26.3359C48.832 28.6796 43.3958 32.1302 38.5781 36.6875C32.9141 41.8307 28.6823 47.5599 25.8828 53.875C23.0182 60.125 21.5859 66.9935 21.5859 74.4804C21.5859 81.056 22.888 87.4362 25.4922 93.6211C28.0313 99.806 31.6771 105.177 36.4297 109.734C38.9688 112.273 41.7031 114.52 44.6328 116.473C47.5625 118.426 50.7526 120.086 54.2031 121.453C60.9089 124.122 67.8425 125.457 75.0039 125.457C76.0456 125.457 77.1849 125.424 78.4219 125.359C79.5938 125.294 80.7656 125.164 81.9375 124.969C83.0443 124.773 84.3138 124.546 85.7461 124.285C87.1784 124.025 88.5456 123.699 89.8477 123.309C88.2852 120.184 87.1133 116.766 86.332 113.055C85.5508 109.279 85.1602 104.884 85.1602 99.8711C85.1602 89.3242 87.5039 78.6797 92.1914 67.9375C96.8789 57.1953 103.617 47.039 112.406 37.4687ZM124.027 53.0937C117.452 60.2552 112.374 68.0677 108.793 76.5312C105.212 84.9297 103.422 93.4583 103.422 102.117C103.422 104.461 103.617 106.87 104.008 109.344C104.138 110.385 104.333 111.492 104.594 112.664C104.854 113.771 105.18 114.91 105.57 116.082C112.667 111.069 118.266 104.819 122.367 97.332C126.404 89.7799 128.422 81.7721 128.422 73.3086C128.422 71.4856 128.357 69.8906 128.227 68.5234C128.096 67.1562 127.803 65.5286 127.348 63.6406C126.632 60.1901 125.525 56.6744 124.027 53.0937ZM137.211 34.7343C140.922 40.4635 143.786 46.681 145.805 53.3867C147.823 60.0924 148.832 67.0586 148.832 74.2851C148.832 82.7487 147.497 90.789 144.828 98.4062C142.159 105.958 138.285 112.924 133.207 119.305C126.111 128.029 117.484 134.799 107.328 139.617C97.1068 144.37 86.0065 146.746 74.0274 146.746C64.0664 146.746 54.6589 144.858 45.8047 141.082C36.8854 137.306 28.8125 131.772 21.5859 124.48C14.8802 117.71 9.76954 110.092 6.25391 101.629C2.73829 93.1653 0.980474 84.0507 0.980474 74.2851C0.980474 64.3893 2.70574 55.2096 6.15626 46.7461C9.60678 38.2825 14.8802 30.47 21.9766 23.3086C29.0729 16.082 37.1458 10.6132 46.1953 6.9023C55.1797 3.19136 65.043 1.33589 75.7852 1.33589C85.03 1.33589 93.6237 2.80074 101.566 5.73043C109.444 8.66011 116.801 13.1197 123.637 19.1093C124.809 16.5052 125.688 13.901 126.273 11.2968C126.859 8.62756 127.152 5.76298 127.152 2.70308V0.0663623H146.977V1.92183C146.977 7.32548 146.195 12.7291 144.633 18.1328C143.005 23.5364 140.531 29.0703 137.211 34.7343Z"/>
</mask>
<path d="M146 356.707V357.707H147V356.707H146ZM3.81251 356.707H2.81251V357.707H3.81251V356.707ZM3.81251 286.687V285.687H2.81251V286.687H3.81251ZM22.7578 286.687H23.7578V285.687H22.7578V286.687ZM22.7578 336.297H21.7578V337.297H22.7578V336.297ZM65.2383 336.297V337.297H66.2383V336.297H65.2383ZM65.2383 286.687V285.687H64.2383V286.687H65.2383ZM83.793 286.687H84.793V285.687H83.793V286.687ZM83.793 336.297H82.793V337.297H83.793V336.297ZM146 336.297H147V335.297H146V336.297ZM146 355.707H3.81251V357.707H146V355.707ZM4.81251 356.707L4.81251 286.687H2.81251L2.81251 356.707H4.81251ZM3.81251 287.687H22.7578V285.687H3.81251V287.687ZM21.7578 286.687L21.7578 336.297H23.7578L23.7578 286.687H21.7578ZM22.7578 337.297H65.2383V335.297H22.7578V337.297ZM66.2383 336.297L66.2383 286.687H64.2383L64.2383 336.297H66.2383ZM65.2383 287.687H83.793V285.687H65.2383V287.687ZM82.793 286.687V336.297H84.793V286.687H82.793ZM83.793 337.297H146V335.297H83.793V337.297ZM145 336.297V356.707H147V336.297H145ZM84.5742 193.816H85.5742V192.379L84.2266 192.879L84.5742 193.816ZM30.5703 213.836L30.2227 212.898L27.7178 213.827L30.2168 214.771L30.5703 213.836ZM84.5742 234.246L84.2207 235.182L85.5742 235.693V234.246H84.5742ZM104.594 241.57H103.594V242.256L104.233 242.503L104.594 241.57ZM146 257.586H147V256.901L146.361 256.653L146 257.586ZM146 279.363L145.636 280.295L147 280.828V279.363H146ZM3.81251 223.797H2.81251V224.48L3.44852 224.728L3.81251 223.797ZM3.81251 203.777L3.44852 202.846L2.81251 203.094V203.777H3.81251ZM146 148.211H147V146.746L145.636 147.28L146 148.211ZM146 170.77L146.353 171.705L147 171.461V170.77H146ZM104.594 186.395L104.241 185.459L103.594 185.703V186.395H104.594ZM84.2266 192.879L30.2227 212.898L30.9179 214.774L84.9218 194.754L84.2266 192.879ZM30.2168 214.771L84.2207 235.182L84.9278 233.311L30.9239 212.9L30.2168 214.771ZM85.5742 234.246L85.5742 193.816H83.5742L83.5742 234.246H85.5742ZM104.233 242.503L145.639 258.519L146.361 256.653L104.955 240.638L104.233 242.503ZM145 257.586V279.363H147V257.586H145ZM146.364 278.432L4.1765 222.865L3.44852 224.728L145.636 280.295L146.364 278.432ZM4.81251 223.797V203.777H2.81251V223.797H4.81251ZM4.1765 204.709L146.364 149.142L145.636 147.28L3.44852 202.846L4.1765 204.709ZM145 148.211V170.77H147V148.211H145ZM145.647 169.834L104.241 185.459L104.947 187.33L146.353 171.705L145.647 169.834ZM103.594 186.395L103.594 241.57H105.594L105.594 186.395H103.594ZM112.406 37.4687L113.143 38.1451L113.831 37.3955L113.07 36.7204L112.406 37.4687ZM94.7305 26.3359L94.3642 27.2664L94.3695 27.2685L94.7305 26.3359ZM54.8867 26.3359L55.2477 27.2685L55.2564 27.2651L54.8867 26.3359ZM38.5781 36.6875L39.2504 37.4278L39.2579 37.4209L39.2653 37.4139L38.5781 36.6875ZM25.8828 53.875L26.792 54.2916L26.797 54.2802L25.8828 53.875ZM25.4922 93.6211L26.4173 93.2413L26.4138 93.233L25.4922 93.6211ZM36.4297 109.734L37.1368 109.027L37.1294 109.02L37.1218 109.013L36.4297 109.734ZM54.2031 121.453L54.573 120.524L54.5715 120.523L54.2031 121.453ZM78.4219 125.359L78.4744 126.358L78.4774 126.358L78.4219 125.359ZM81.9375 124.969L82.1019 125.955L82.1113 125.954L81.9375 124.969ZM89.8477 123.309L90.135 124.266L91.2738 123.925L90.7421 122.861L89.8477 123.309ZM86.332 113.055L85.3528 113.257L85.3535 113.261L86.332 113.055ZM124.027 53.0937L124.95 52.7079L124.347 51.2667L123.291 52.4174L124.027 53.0937ZM108.793 76.5312L109.713 76.9234L109.714 76.9209L108.793 76.5312ZM104.008 109.344L105 109.22L104.998 109.204L104.996 109.188L104.008 109.344ZM104.594 112.664L103.618 112.881L103.62 112.893L104.594 112.664ZM105.57 116.082L104.622 116.398L105.047 117.676L106.147 116.899L105.57 116.082ZM122.367 97.332L123.244 97.8125L123.249 97.8034L122.367 97.332ZM127.348 63.6406L126.369 63.8438L126.372 63.8596L126.376 63.8752L127.348 63.6406ZM137.211 34.7343L136.348 34.2286L136.036 34.7605L136.372 35.278L137.211 34.7343ZM145.805 53.3867L144.847 53.6749L145.805 53.3867ZM144.828 98.4062L145.771 98.7395L145.772 98.7369L144.828 98.4062ZM133.207 119.305L133.983 119.936L133.989 119.927L133.207 119.305ZM107.328 139.617L107.75 140.524L107.757 140.521L107.328 139.617ZM45.8047 141.082L46.197 140.162L46.1946 140.161L45.8047 141.082ZM21.5859 124.48L20.8754 125.184L20.8757 125.184L21.5859 124.48ZM6.15626 46.7461L7.08226 47.1236L6.15626 46.7461ZM21.9766 23.3086L22.6869 24.0124L22.6901 24.0092L21.9766 23.3086ZM46.1953 6.9023L46.5747 7.82753L46.5771 7.82656L46.1953 6.9023ZM101.566 5.73043L101.915 4.79314L101.912 4.79222L101.566 5.73043ZM123.637 19.1093L122.978 19.8615L123.994 20.752L124.549 19.5197L123.637 19.1093ZM126.273 11.2968L127.249 11.5163L127.25 11.5112L126.273 11.2968ZM127.152 0.0663623V-0.933638H126.152V0.0663623H127.152ZM146.977 0.0663623H147.977V-0.933638H146.977V0.0663623ZM144.633 18.1328L145.59 18.4212L145.593 18.4105L144.633 18.1328ZM113.07 36.7204C107.267 31.5772 101.275 27.797 95.0915 25.4033L94.3695 27.2685C100.295 29.5623 106.087 33.204 111.743 38.2171L113.07 36.7204ZM95.0968 25.4054C88.8406 22.9429 81.7469 21.7226 73.832 21.7226V23.7226C81.5422 23.7226 88.3808 24.9112 94.3642 27.2664L95.0968 25.4054ZM73.832 21.7226C67.1311 21.7226 60.6905 22.9506 54.5171 25.4067L55.2564 27.2651C61.1924 24.9034 67.3819 23.7226 73.832 23.7226V21.7226ZM54.5257 25.4033C48.3473 27.795 42.8009 31.3164 37.8909 35.961L39.2653 37.4139C43.9908 32.9439 49.3167 29.5643 55.2477 27.2685L54.5257 25.4033ZM37.9059 35.9471C32.1499 41.1739 27.8303 47.0142 24.9686 53.4697L26.797 54.2802C29.5343 48.1055 33.6783 42.4875 39.2504 37.4278L37.9059 35.9471ZM24.9738 53.4583C22.0441 59.8503 20.5859 66.8626 20.5859 74.4804H22.5859C22.5859 67.1243 23.9924 60.3996 26.7919 54.2916L24.9738 53.4583ZM20.5859 74.4804C20.5859 81.192 21.9158 87.704 24.5706 94.0091L26.4138 93.233C23.8603 87.1684 22.5859 80.9199 22.5859 74.4804H20.5859ZM24.5671 94.0008C27.1583 100.313 30.8827 105.801 35.7376 110.456L37.1218 109.013C32.4714 104.553 28.9042 99.2992 26.4173 93.2413L24.5671 94.0008ZM35.7226 110.441C38.3073 113.026 41.0926 115.314 44.0781 117.305L45.1875 115.641C42.3137 113.725 39.6302 111.521 37.1368 109.027L35.7226 110.441ZM44.0781 117.305C47.0694 119.299 50.3224 120.991 53.8348 122.383L54.5715 120.523C51.1828 119.181 48.0556 117.553 45.1875 115.641L44.0781 117.305ZM53.8333 122.382C60.6558 125.098 67.7148 126.457 75.0039 126.457V124.457C67.9701 124.457 61.162 123.147 54.573 120.524L53.8333 122.382ZM75.0039 126.457C76.066 126.457 77.2231 126.424 78.4744 126.358L78.3693 124.361C77.1467 124.425 76.0252 124.457 75.0039 124.457V126.457ZM78.4774 126.358C79.6862 126.291 80.8944 126.156 82.1019 125.955L81.7731 123.982C80.6369 124.172 79.5014 124.298 78.3664 124.361L78.4774 126.358ZM82.1113 125.954C83.2202 125.758 84.4915 125.53 85.925 125.269L85.5672 123.301C84.1362 123.561 82.8684 123.789 81.7637 123.984L82.1113 125.954ZM85.925 125.269C87.3913 125.002 88.7949 124.668 90.135 124.266L89.5603 122.351C88.2963 122.73 86.9655 123.047 85.5672 123.301L85.925 125.269ZM90.7421 122.861C89.2209 119.819 88.0757 116.483 87.3106 112.849L85.3535 113.261C86.1509 117.048 87.3494 120.548 88.9532 123.756L90.7421 122.861ZM87.3113 112.852C86.5472 109.159 86.1602 104.835 86.1602 99.8711H84.1602C84.1602 104.933 84.5544 109.398 85.3528 113.257L87.3113 112.852ZM86.1602 99.8711C86.1602 89.4764 88.4694 78.9675 93.108 68.3374L91.2749 67.5375C86.5385 78.3918 84.1602 89.172 84.1602 99.8711H86.1602ZM93.108 68.3374C97.7466 57.7071 104.421 47.6427 113.143 38.1451L111.67 36.7923C102.814 46.4354 96.0112 56.6834 91.2749 67.5375L93.108 68.3374ZM123.291 52.4174C116.642 59.6582 111.5 67.5666 107.872 76.1416L109.714 76.9209C113.248 68.5687 118.261 60.8521 124.764 53.77L123.291 52.4174ZM107.873 76.139C104.242 84.6546 102.422 93.3163 102.422 102.117H104.422C104.422 93.6004 106.182 85.2047 109.713 76.9234L107.873 76.139ZM102.422 102.117C102.422 104.517 102.622 106.978 103.02 109.5L104.996 109.188C104.613 106.762 104.422 104.405 104.422 102.117H102.422ZM103.016 109.468C103.15 110.545 103.351 111.683 103.618 112.881L105.57 112.447C105.315 111.302 105.126 110.226 105 109.22L103.016 109.468ZM103.62 112.893C103.888 114.032 104.222 115.2 104.622 116.398L106.519 115.766C106.137 114.62 105.82 113.51 105.567 112.435L103.62 112.893ZM106.147 116.899C113.366 111.8 119.068 105.435 123.244 97.8125L121.49 96.8515C117.463 104.203 111.968 110.338 104.993 115.265L106.147 116.899ZM123.249 97.8034C127.362 90.1081 129.422 81.9386 129.422 73.3086H127.422C127.422 81.6056 125.445 89.4518 121.485 96.8606L123.249 97.8034ZM129.422 73.3086C129.422 71.4635 129.356 69.8355 129.222 68.4286L127.231 68.6182C127.358 69.9456 127.422 71.5077 127.422 73.3086H129.422ZM129.222 68.4286C129.086 66.9995 128.782 65.3228 128.32 63.4059L126.376 63.8752C126.824 65.7345 127.107 67.313 127.231 68.6182L129.222 68.4286ZM128.327 63.4374C127.596 59.9184 126.47 56.3417 124.95 52.7079L123.105 53.4795C124.58 57.0072 125.667 60.4618 126.369 63.8438L128.327 63.4374ZM136.372 35.278C140.03 40.926 142.855 47.0571 144.847 53.6749L146.762 53.0985C144.718 46.3048 141.814 40.0011 138.05 34.1907L136.372 35.278ZM144.847 53.6749C146.836 60.2842 147.832 67.153 147.832 74.2851H149.832C149.832 66.9641 148.81 59.9007 146.762 53.0985L144.847 53.6749ZM147.832 74.2851C147.832 82.6416 146.515 90.5697 143.884 98.0755L145.772 98.7369C148.48 91.0084 149.832 82.8558 149.832 74.2851H147.832ZM143.885 98.073C141.254 105.518 137.435 112.387 132.425 118.682L133.989 119.927C139.136 113.462 143.064 106.398 145.771 98.7395L143.885 98.073ZM132.431 118.674C125.429 127.282 116.921 133.96 106.9 138.714L107.757 140.521C118.048 135.639 126.793 128.775 133.983 119.936L132.431 118.674ZM106.907 138.71C96.8254 143.398 85.8702 145.746 74.0274 145.746V147.746C86.1429 147.746 97.3881 145.342 107.75 140.524L106.907 138.71ZM74.0274 145.746C64.1964 145.746 54.9228 143.883 46.197 140.162L45.4124 142.002C54.3949 145.833 63.9364 147.746 74.0274 147.746V145.746ZM46.1946 140.161C37.4023 136.439 29.4367 130.981 22.2962 123.777L20.8757 125.184C28.1883 132.563 36.3686 138.173 45.4148 142.003L46.1946 140.161ZM22.2965 123.777C15.6781 117.094 10.6414 109.585 7.17741 101.245L5.33042 102.012C8.89764 110.6 14.0824 118.325 20.8754 125.184L22.2965 123.777ZM7.17741 101.245C3.71554 92.9111 1.98047 83.9278 1.98047 74.2851H-0.0195256C-0.0195256 84.1737 1.76103 93.4195 5.33042 102.012L7.17741 101.245ZM1.98047 74.2851C1.98047 64.508 3.68452 55.4577 7.08226 47.1236L5.23026 46.3685C1.72695 54.9615 -0.0195256 64.2706 -0.0195256 74.2851H1.98047ZM7.08226 47.1236C10.4782 38.794 15.6736 31.09 22.6869 24.0124L21.2662 22.6047C14.0868 29.85 8.73538 37.7711 5.23026 46.3685L7.08226 47.1236ZM22.6901 24.0092C29.6949 16.8759 37.6552 11.4852 46.5747 7.82753L45.8159 5.97707C36.6365 9.74129 28.451 15.2881 21.2631 22.6079L22.6901 24.0092ZM46.5771 7.82656C55.4283 4.17064 65.1602 2.33589 75.7852 2.33589V0.335894C64.9258 0.335894 54.9311 2.21208 45.8136 5.97805L46.5771 7.82656ZM75.7852 2.33589C84.9227 2.33589 93.3982 3.7834 101.22 6.66863L101.912 4.79222C93.8492 1.81807 85.1372 0.335894 75.7852 0.335894V2.33589ZM101.218 6.66771C108.973 9.55171 116.226 13.9454 122.978 19.8615L124.296 18.3572C117.376 12.2941 109.915 7.76851 101.915 4.79314L101.218 6.66771ZM124.549 19.5197C125.746 16.8584 126.647 14.1905 127.249 11.5163L125.298 11.0773C124.728 13.6115 123.871 16.1519 122.725 18.699L124.549 19.5197ZM127.25 11.5112C127.853 8.76375 128.152 5.82662 128.152 2.70308H126.152C126.152 5.69933 125.865 8.49138 125.297 11.0824L127.25 11.5112ZM128.152 2.70308V0.0663623H126.152V2.70308H128.152ZM127.152 1.06636H146.977V-0.933638H127.152V1.06636ZM145.977 0.0663623V1.92183H147.977V0.0663623H145.977ZM145.977 1.92183C145.977 7.22771 145.21 12.5379 143.672 17.855L145.593 18.4105C147.181 12.9203 147.977 7.42324 147.977 1.92183H145.977ZM143.675 17.8444C142.074 23.1609 139.635 28.6221 136.348 34.2286L138.074 35.24C141.428 29.5184 143.937 23.9119 145.59 18.4212L143.675 17.8444Z" fill="white" mask="url(#path-1-outside-1_240_621)"/>
</svg>
