<svg width="630" height="125" viewBox="0 0 630 125" fill="none" xmlns="http://www.w3.org/2000/svg">
<mask id="path-1-outside-1_129_1345" maskUnits="userSpaceOnUse" x="-3" y="-2.5" width="636" height="130" fill="black">
<rect fill="white" x="-3" y="-2.5" width="636" height="130"/>
<path d="M0.380859 1.69824H25.8691C32.4609 1.69824 37.3438 2.43066 40.5176 3.89551C43.6914 5.31152 45.8154 7.77734 46.8896 11.293C47.9639 14.7598 48.501 19.8135 48.501 26.4541V42.3477C48.501 46.5469 48.2812 49.8916 47.8418 52.3818C47.4512 54.8721 46.5723 57.0205 45.2051 58.8271C43.8379 60.585 41.7871 62.0986 39.0527 63.3682C42.7148 64.7354 45.2051 66.8838 46.5234 69.8135C47.8418 72.6943 48.501 76.7959 48.501 82.1182V123.5H27.7734V78.3828C27.7734 76.332 27.4072 74.8916 26.6748 74.0615C25.9424 73.2314 24.6729 72.8164 22.8662 72.8164C22.5244 72.8164 22.2314 72.8408 21.9873 72.8896C21.7432 72.8896 21.4746 72.9141 21.1816 72.9629V123.5H0.380859V1.69824ZM21.1816 17.5918V54.7988C21.6211 54.7988 21.9629 54.8232 22.207 54.8721C22.5 54.8721 22.7686 54.8965 23.0127 54.9453C24.9658 54.9453 26.2354 54.5059 26.8213 53.627C27.4561 52.748 27.7734 51.0879 27.7734 48.6465V25.2822C27.7734 22.0596 27.5049 19.9844 26.9678 19.0566C26.4795 18.0801 25.0146 17.5918 22.5732 17.5918H21.1816ZM60.3281 1.69824H93.5801V17.5918H81.1289V48.6465H93.5801V64.6865H81.1289V107.46H93.5801V123.5H60.3281V1.69824ZM104.382 25.4287C104.382 18.1533 104.919 12.8799 105.993 9.6084C107.067 6.33691 109.289 4.09082 112.658 2.87012C116.027 1.60059 121.423 0.96582 128.845 0.96582C136.071 0.96582 141.32 1.60059 144.592 2.87012C147.912 4.09082 150.109 6.33691 151.184 9.6084C152.307 12.8799 152.868 18.1533 152.868 25.4287V43.373H131.994V22.4258C131.994 20.4727 131.774 19.1055 131.335 18.3242C130.896 17.543 129.968 17.1523 128.552 17.1523C127.185 17.1523 126.257 17.5918 125.769 18.4707C125.329 19.3008 125.109 20.6191 125.109 22.4258V102.919C125.109 104.677 125.354 105.971 125.842 106.801C126.379 107.631 127.331 108.046 128.698 108.046C130.065 108.046 130.944 107.655 131.335 106.874C131.774 106.093 131.994 104.774 131.994 102.919V76.4053H128.845V60.3652H152.868V123.5H144.152L140.71 116.469C138.513 119.447 136.071 121.522 133.386 122.694C130.749 123.817 127.233 124.379 122.839 124.379C118.151 124.379 114.465 123.646 111.779 122.182C109.143 120.668 107.238 118.397 106.066 115.37C104.943 112.343 104.382 108.363 104.382 103.432V25.4287ZM164.256 1.69824H185.057V123.5H164.256V1.69824ZM244.345 25.2822V43.666H223.617V22.2793C223.617 20.4238 223.349 19.1055 222.812 18.3242C222.274 17.543 221.396 17.1523 220.175 17.1523C218.173 17.1523 217.172 18.8613 217.172 22.2793V41.1758C217.172 43.1777 217.44 44.6914 217.978 45.7168C218.515 46.6934 219.809 47.7676 221.859 48.9395L234.604 56.2637C237.191 57.7285 239.193 59.3643 240.609 61.1709C242.074 62.9775 243.051 64.9307 243.539 67.0303C244.076 69.1299 244.345 71.6934 244.345 74.7207V100.136C244.345 105.8 244.101 110.121 243.612 113.1C243.124 116.029 242.074 118.349 240.463 120.058C238.852 121.718 236.483 122.865 233.358 123.5C230.282 124.086 225.888 124.379 220.175 124.379C214.657 124.379 210.385 124.062 207.357 123.427C204.33 122.743 201.986 121.596 200.326 119.984C198.666 118.324 197.543 115.956 196.957 112.88C196.42 109.755 196.151 105.507 196.151 100.136V73.2559H217.172V102.919C217.172 104.726 217.44 106.068 217.978 106.947C218.515 107.777 219.394 108.192 220.614 108.192C222.616 108.192 223.617 106.435 223.617 102.919V77.1377C223.617 75.0869 223.349 73.5977 222.812 72.6699C222.274 71.6934 221.005 70.6436 219.003 69.5205L205.6 61.6836C201.938 59.5352 199.447 56.9717 198.129 53.9932C196.811 51.0146 196.151 47.2305 196.151 42.6406V25.2822C196.151 19.9111 196.444 15.6387 197.03 12.4648C197.665 9.29102 198.788 6.89844 200.399 5.28711C202.06 3.62695 204.403 2.50391 207.431 1.91797C210.507 1.2832 214.804 0.96582 220.321 0.96582C227.694 0.96582 233.017 1.57617 236.288 2.79688C239.56 4.01758 241.708 6.28809 242.733 9.6084C243.808 12.8799 244.345 18.1045 244.345 25.2822ZM251.777 1.69824H293.086V17.8848H282.832V123.5H262.031V17.8848H251.777V1.69824ZM301.178 1.69824H334.43V17.5918H321.979V48.6465H334.43V64.6865H321.979V107.46H334.43V123.5H301.178V1.69824ZM345.891 1.69824H371.379C377.971 1.69824 382.854 2.43066 386.027 3.89551C389.201 5.31152 391.325 7.77734 392.399 11.293C393.474 14.7598 394.011 19.8135 394.011 26.4541V42.3477C394.011 46.5469 393.791 49.8916 393.352 52.3818C392.961 54.8721 392.082 57.0205 390.715 58.8271C389.348 60.585 387.297 62.0986 384.562 63.3682C388.225 64.7354 390.715 66.8838 392.033 69.8135C393.352 72.6943 394.011 76.7959 394.011 82.1182V123.5H373.283V78.3828C373.283 76.332 372.917 74.8916 372.185 74.0615C371.452 73.2314 370.183 72.8164 368.376 72.8164C368.034 72.8164 367.741 72.8408 367.497 72.8896C367.253 72.8896 366.984 72.9141 366.691 72.9629V123.5H345.891V1.69824ZM366.691 17.5918V54.7988C367.131 54.7988 367.473 54.8232 367.717 54.8721C368.01 54.8721 368.278 54.8965 368.522 54.9453C370.476 54.9453 371.745 54.5059 372.331 53.627C372.966 52.748 373.283 51.0879 373.283 48.6465V25.2822C373.283 22.0596 373.015 19.9844 372.478 19.0566C371.989 18.0801 370.524 17.5918 368.083 17.5918H366.691ZM436.049 1.69824H454.652L466.005 62.416H466.957L466.591 1.69824H484.608V123.5H466.151L454.652 61.0977H453.7L454.14 123.5H436.049V1.69824ZM496.216 25.2822C496.216 19.6182 496.46 15.2969 496.948 12.3184C497.485 9.33984 498.535 7.02051 500.098 5.36035C501.709 3.65137 504.053 2.50391 507.129 1.91797C510.205 1.2832 514.575 0.96582 520.239 0.96582C527.612 0.96582 532.91 1.55176 536.133 2.72363C539.404 3.84668 541.602 6.06836 542.725 9.38867C543.848 12.709 544.409 18.0068 544.409 25.2822V99.916C544.409 107.143 543.872 112.416 542.798 115.736C541.724 119.057 539.551 121.327 536.279 122.548C533.008 123.769 527.759 124.379 520.532 124.379C513.11 124.379 507.764 123.793 504.492 122.621C501.221 121.449 499.023 119.179 497.9 115.81C496.777 112.44 496.216 107.143 496.216 99.916V25.2822ZM516.943 22.4258V102.919C516.943 104.726 517.212 106.044 517.749 106.874C518.286 107.655 519.165 108.046 520.386 108.046C521.558 108.046 522.363 107.655 522.803 106.874C523.291 106.044 523.535 104.726 523.535 102.919V22.4258C523.535 20.5215 523.291 19.1787 522.803 18.3975C522.314 17.5674 521.411 17.1523 520.093 17.1523C518.97 17.1523 518.164 17.5918 517.676 18.4707C517.188 19.3496 516.943 20.668 516.943 22.4258ZM549.205 1.69824H569.42L574.107 73.4023H575.133L580.699 1.69824H598.863L605.309 73.4023H606.334L610.069 1.69824H629.698L618.199 123.5H596.739L590.733 51.9424H589.708L583.849 123.5H562.096L549.205 1.69824Z"/>
</mask>
<path d="M0.380859 1.69824V-1.30176H-2.61914V1.69824H0.380859ZM40.5176 3.89551L39.2604 6.61939L39.2778 6.6274L39.2953 6.6352L40.5176 3.89551ZM46.8896 11.293L44.0206 12.1696L44.0241 12.1809L46.8896 11.293ZM47.8418 52.3818L44.8874 51.8605L44.8825 51.8887L44.878 51.9169L47.8418 52.3818ZM45.2051 58.8271L47.5731 60.669L47.5853 60.6533L47.5973 60.6375L45.2051 58.8271ZM39.0527 63.3682L37.7894 60.6471L31.2809 63.6689L38.0035 66.1787L39.0527 63.3682ZM46.5234 69.8135L43.7877 71.0446L43.7916 71.0532L43.7955 71.0619L46.5234 69.8135ZM48.501 123.5V126.5H51.501V123.5H48.501ZM27.7734 123.5H24.7734V126.5H27.7734V123.5ZM21.9873 72.8896V75.8896H22.2844L22.5757 75.8314L21.9873 72.8896ZM21.1816 72.9629L20.6884 70.0037L18.1816 70.4215V72.9629H21.1816ZM21.1816 123.5V126.5H24.1816V123.5H21.1816ZM0.380859 123.5H-2.61914V126.5H0.380859V123.5ZM21.1816 17.5918V14.5918H18.1816V17.5918H21.1816ZM21.1816 54.7988H18.1816V57.7988H21.1816V54.7988ZM22.207 54.8721L21.6187 57.8138L21.91 57.8721H22.207V54.8721ZM23.0127 54.9453L22.4243 57.8871L22.7156 57.9453H23.0127V54.9453ZM26.8213 53.627L24.3893 51.8705L24.3563 51.9161L24.3251 51.9629L26.8213 53.627ZM26.9678 19.0566L24.2845 20.3983L24.3255 20.4803L24.3715 20.5597L26.9678 19.0566ZM0.380859 4.69824H25.8691V-1.30176H0.380859V4.69824ZM25.8691 4.69824C32.3445 4.69824 36.6925 5.4342 39.2604 6.61939L41.7748 1.17163C37.995 -0.572867 32.5773 -1.30176 25.8691 -1.30176V4.69824ZM39.2953 6.6352C41.626 7.67506 43.1833 9.4295 44.0206 12.1696L49.7587 10.4163C48.4475 6.12519 45.7568 2.94799 41.7399 1.15581L39.2953 6.6352ZM44.0241 12.1809C44.9639 15.2139 45.501 19.9088 45.501 26.4541H51.501C51.501 19.7181 50.9639 14.3056 49.7552 10.405L44.0241 12.1809ZM45.501 26.4541V42.3477H51.501V26.4541H45.501ZM45.501 42.3477C45.501 46.4702 45.2832 49.6176 44.8874 51.8605L50.7961 52.9032C51.2793 50.1656 51.501 46.6236 51.501 42.3477H45.501ZM44.878 51.9169C44.5553 53.9744 43.8491 55.6475 42.8129 57.0168L47.5973 60.6375C49.2954 58.3935 50.347 55.7697 50.8056 52.8467L44.878 51.9169ZM42.837 56.9853C41.8479 58.2571 40.2368 59.5109 37.7894 60.6471L40.3161 66.0892C43.3374 64.6864 45.8279 62.9128 47.5731 60.669L42.837 56.9853ZM38.0035 66.1787C41.0887 67.3305 42.867 68.9987 43.7877 71.0446L49.2592 68.5824C47.5431 64.7689 44.341 62.1402 40.102 60.5576L38.0035 66.1787ZM43.7955 71.0619C44.8525 73.3715 45.501 76.9721 45.501 82.1182H51.501C51.501 76.6197 50.8311 72.0172 49.2514 68.5651L43.7955 71.0619ZM45.501 82.1182V123.5H51.501V82.1182H45.501ZM48.501 120.5H27.7734V126.5H48.501V120.5ZM30.7734 123.5V78.3828H24.7734V123.5H30.7734ZM30.7734 78.3828C30.7734 76.1528 30.4107 73.7613 28.9243 72.0767L24.4253 76.0464C24.3873 76.0033 24.4871 76.0939 24.5913 76.5036C24.6947 76.9104 24.7734 77.5198 24.7734 78.3828H30.7734ZM28.9243 72.0767C27.3471 70.2891 25.0042 69.8164 22.8662 69.8164V75.8164C23.5568 75.8164 23.9923 75.8978 24.2411 75.9792C24.4725 76.0548 24.4797 76.108 24.4253 76.0464L28.9243 72.0767ZM22.8662 69.8164C22.3943 69.8164 21.8933 69.849 21.399 69.9479L22.5757 75.8314C22.5678 75.833 22.587 75.8287 22.6393 75.8244C22.6909 75.8201 22.7655 75.8164 22.8662 75.8164V69.8164ZM21.9873 69.8896C21.5471 69.8896 21.1108 69.9333 20.6884 70.0037L21.6748 75.9221C21.8384 75.8948 21.9393 75.8896 21.9873 75.8896V69.8896ZM18.1816 72.9629V123.5H24.1816V72.9629H18.1816ZM21.1816 120.5H0.380859V126.5H21.1816V120.5ZM3.38086 123.5V1.69824H-2.61914V123.5H3.38086ZM18.1816 17.5918V54.7988H24.1816V17.5918H18.1816ZM21.1816 57.7988C21.3488 57.7988 21.4706 57.8036 21.5538 57.8095C21.6421 57.8158 21.6565 57.8214 21.6187 57.8138L22.7954 51.9303C22.2645 51.8242 21.6933 51.7988 21.1816 51.7988V57.7988ZM22.207 57.8721C22.3361 57.8721 22.4043 57.883 22.4243 57.8871L23.601 52.0036C23.1328 51.9099 22.6639 51.8721 22.207 51.8721V57.8721ZM23.0127 57.9453C25.1486 57.9453 27.8374 57.511 29.3174 55.2911L24.3251 51.9629C24.4843 51.7241 24.634 51.7165 24.4484 51.7808C24.2374 51.8538 23.793 51.9453 23.0127 51.9453V57.9453ZM29.2533 55.3834C29.9308 54.4454 30.2823 53.3305 30.482 52.286C30.688 51.2084 30.7734 49.9807 30.7734 48.6465H24.7734C24.7734 49.7536 24.7001 50.5767 24.5888 51.1593C24.4711 51.7749 24.3466 51.9296 24.3893 51.8705L29.2533 55.3834ZM30.7734 48.6465V25.2822H24.7734V48.6465H30.7734ZM30.7734 25.2822C30.7734 23.6029 30.7043 22.1378 30.5472 20.9238C30.4012 19.7955 30.1425 18.5526 29.5641 17.5535L24.3715 20.5597C24.3302 20.4884 24.4743 20.747 24.5968 21.6939C24.7083 22.5551 24.7734 23.7389 24.7734 25.2822H30.7734ZM29.6511 17.715C28.9256 16.2641 27.6227 15.5023 26.4516 15.112C25.2887 14.7243 23.9518 14.5918 22.5732 14.5918V20.5918C23.6361 20.5918 24.2523 20.7034 24.5542 20.8041C24.848 20.902 24.5217 20.8726 24.2845 20.3983L29.6511 17.715ZM22.5732 14.5918H21.1816V20.5918H22.5732V14.5918ZM60.3281 1.69824V-1.30176H57.3281V1.69824H60.3281ZM93.5801 1.69824H96.5801V-1.30176H93.5801V1.69824ZM93.5801 17.5918V20.5918H96.5801V17.5918H93.5801ZM81.1289 17.5918V14.5918H78.1289V17.5918H81.1289ZM81.1289 48.6465H78.1289V51.6465H81.1289V48.6465ZM93.5801 48.6465H96.5801V45.6465H93.5801V48.6465ZM93.5801 64.6865V67.6865H96.5801V64.6865H93.5801ZM81.1289 64.6865V61.6865H78.1289V64.6865H81.1289ZM81.1289 107.46H78.1289V110.46H81.1289V107.46ZM93.5801 107.46H96.5801V104.46H93.5801V107.46ZM93.5801 123.5V126.5H96.5801V123.5H93.5801ZM60.3281 123.5H57.3281V126.5H60.3281V123.5ZM60.3281 4.69824H93.5801V-1.30176H60.3281V4.69824ZM90.5801 1.69824V17.5918H96.5801V1.69824H90.5801ZM93.5801 14.5918H81.1289V20.5918H93.5801V14.5918ZM78.1289 17.5918V48.6465H84.1289V17.5918H78.1289ZM81.1289 51.6465H93.5801V45.6465H81.1289V51.6465ZM90.5801 48.6465V64.6865H96.5801V48.6465H90.5801ZM93.5801 61.6865H81.1289V67.6865H93.5801V61.6865ZM78.1289 64.6865V107.46H84.1289V64.6865H78.1289ZM81.1289 110.46H93.5801V104.46H81.1289V110.46ZM90.5801 107.46V123.5H96.5801V107.46H90.5801ZM93.5801 120.5H60.3281V126.5H93.5801V120.5ZM63.3281 123.5V1.69824H57.3281V123.5H63.3281ZM112.658 2.87012L113.68 5.69069L113.698 5.68417L113.716 5.67743L112.658 2.87012ZM144.592 2.87012L143.506 5.66691L143.531 5.67661L143.557 5.68585L144.592 2.87012ZM151.184 9.6084L148.333 10.5443L148.34 10.5634L148.346 10.5825L151.184 9.6084ZM152.868 43.373V46.373H155.868V43.373H152.868ZM131.994 43.373H128.994V46.373H131.994V43.373ZM125.769 18.4707L123.146 17.0138L123.131 17.0403L123.117 17.067L125.769 18.4707ZM125.842 106.801L123.256 108.322L123.288 108.377L123.323 108.431L125.842 106.801ZM131.335 106.874L128.72 105.403L128.684 105.467L128.652 105.532L131.335 106.874ZM131.994 76.4053H134.994V73.4053H131.994V76.4053ZM128.845 76.4053H125.845V79.4053H128.845V76.4053ZM128.845 60.3652V57.3652H125.845V60.3652H128.845ZM152.868 60.3652H155.868V57.3652H152.868V60.3652ZM152.868 123.5V126.5H155.868V123.5H152.868ZM144.152 123.5L141.458 124.819L142.281 126.5H144.152V123.5ZM140.71 116.469L143.404 115.15L141.231 110.71L138.296 114.688L140.71 116.469ZM133.386 122.694L134.561 125.454L134.573 125.449L134.586 125.444L133.386 122.694ZM111.779 122.182L110.286 124.783L110.314 124.8L110.343 124.815L111.779 122.182ZM106.066 115.37L103.254 116.414L103.261 116.433L103.269 116.453L106.066 115.37ZM107.382 25.4287C107.382 18.1986 107.928 13.3332 108.843 10.5443L103.143 8.67249C101.91 12.4265 101.382 18.108 101.382 25.4287H107.382ZM108.843 10.5443C109.617 8.18917 111.137 6.61226 113.68 5.69069L111.636 0.0495453C107.442 1.56938 104.518 4.48465 103.143 8.67249L108.843 10.5443ZM113.716 5.67743C116.549 4.61002 121.484 3.96582 128.845 3.96582V-2.03418C121.362 -2.03418 115.506 -1.40885 111.6 0.0628052L113.716 5.67743ZM128.845 3.96582C136.009 3.96582 140.784 4.61046 143.506 5.66691L145.677 0.0733205C141.857 -1.40929 136.134 -2.03418 128.845 -2.03418V3.96582ZM143.557 5.68585C146.044 6.60029 147.554 8.17125 148.333 10.5443L154.034 8.67249C152.665 4.50258 149.78 1.58135 145.627 0.0543815L143.557 5.68585ZM148.346 10.5825C149.297 13.3537 149.868 18.2019 149.868 25.4287H155.868C155.868 18.1047 155.316 12.4061 154.021 8.63434L148.346 10.5825ZM149.868 25.4287V43.373H155.868V25.4287H149.868ZM152.868 40.373H131.994V46.373H152.868V40.373ZM134.994 43.373V22.4258H128.994V43.373H134.994ZM134.994 22.4258C134.994 20.4312 134.801 18.3677 133.95 16.8534L128.72 19.795C128.699 19.7564 128.786 19.908 128.867 20.4116C128.944 20.8885 128.994 21.5495 128.994 22.4258H134.994ZM133.95 16.8534C132.716 14.6601 130.38 14.1523 128.552 14.1523V20.1523C128.771 20.1523 128.926 20.1677 129.029 20.1848C129.132 20.2019 129.163 20.2177 129.145 20.2102C129.124 20.2014 129.052 20.1673 128.961 20.0893C128.867 20.0086 128.783 19.9067 128.72 19.795L133.95 16.8534ZM128.552 14.1523C126.541 14.1523 124.35 14.8475 123.146 17.0138L128.391 19.9276C128.366 19.972 128.324 20.0316 128.261 20.0896C128.2 20.1471 128.144 20.1793 128.115 20.1931C128.089 20.2055 128.102 20.1949 128.173 20.1812C128.246 20.1673 128.368 20.1523 128.552 20.1523V14.1523ZM123.117 17.067C122.322 18.5696 122.109 20.5031 122.109 22.4258H128.109C128.109 20.7352 128.336 20.032 128.42 19.8744L123.117 17.067ZM122.109 22.4258V102.919H128.109V22.4258H122.109ZM122.109 102.919C122.109 104.835 122.354 106.789 123.256 108.322L128.428 105.28C128.353 105.153 128.109 104.519 128.109 102.919H122.109ZM123.323 108.431C124.611 110.421 126.742 111.046 128.698 111.046V105.046C128.303 105.046 128.156 104.984 128.158 104.985C128.163 104.987 128.199 105.004 128.247 105.044C128.296 105.085 128.335 105.131 128.361 105.171L123.323 108.431ZM128.698 111.046C130.498 111.046 132.867 110.519 134.018 108.216L128.652 105.532C128.714 105.407 128.805 105.285 128.916 105.182C129.024 105.083 129.118 105.032 129.164 105.011C129.207 104.993 129.199 105.003 129.118 105.017C129.037 105.031 128.901 105.046 128.698 105.046V111.046ZM133.95 108.345C134.794 106.844 134.994 104.848 134.994 102.919H128.994C128.994 103.74 128.945 104.359 128.87 104.806C128.792 105.274 128.707 105.426 128.72 105.403L133.95 108.345ZM134.994 102.919V76.4053H128.994V102.919H134.994ZM131.994 73.4053H128.845V79.4053H131.994V73.4053ZM131.845 76.4053V60.3652H125.845V76.4053H131.845ZM128.845 63.3652H152.868V57.3652H128.845V63.3652ZM149.868 60.3652V123.5H155.868V60.3652H149.868ZM152.868 120.5H144.152V126.5H152.868V120.5ZM146.847 122.181L143.404 115.15L138.016 117.788L141.458 124.819L146.847 122.181ZM138.296 114.688C136.33 117.352 134.277 119.032 132.186 119.945L134.586 125.444C137.865 124.013 140.695 121.542 143.124 118.25L138.296 114.688ZM132.21 119.934C130.089 120.838 127.023 121.379 122.839 121.379V127.379C127.444 127.379 131.409 126.797 134.561 125.454L132.21 119.934ZM122.839 121.379C118.409 121.379 115.287 120.678 113.216 119.548L110.343 124.815C113.643 126.615 117.894 127.379 122.839 127.379V121.379ZM113.273 119.58C111.274 118.432 109.806 116.72 108.864 114.287L103.269 116.453C104.671 120.074 107.011 122.904 110.286 124.783L113.273 119.58ZM108.879 114.327C107.927 111.761 107.382 108.175 107.382 103.432H101.382C101.382 108.551 101.959 112.925 103.254 116.414L108.879 114.327ZM107.382 103.432V25.4287H101.382V103.432H107.382ZM164.256 1.69824V-1.30176H161.256V1.69824H164.256ZM185.057 1.69824H188.057V-1.30176H185.057V1.69824ZM185.057 123.5V126.5H188.057V123.5H185.057ZM164.256 123.5H161.256V126.5H164.256V123.5ZM164.256 4.69824H185.057V-1.30176H164.256V4.69824ZM182.057 1.69824V123.5H188.057V1.69824H182.057ZM185.057 120.5H164.256V126.5H185.057V120.5ZM167.256 123.5V1.69824H161.256V123.5H167.256ZM244.345 43.666V46.666H247.345V43.666H244.345ZM223.617 43.666H220.617V46.666H223.617V43.666ZM217.978 45.7168L215.32 47.1088L215.334 47.1358L215.349 47.1626L217.978 45.7168ZM221.859 48.9395L223.354 46.3384L223.348 46.3347L221.859 48.9395ZM234.604 56.2637L233.109 58.8647L233.117 58.8696L233.126 58.8744L234.604 56.2637ZM240.609 61.1709L238.248 63.0215L238.264 63.041L238.279 63.0603L240.609 61.1709ZM243.539 67.0303L240.617 67.7098L240.624 67.7419L240.633 67.7738L243.539 67.0303ZM243.612 113.1L246.572 113.593L246.573 113.585L243.612 113.1ZM240.463 120.058L242.616 122.147L242.631 122.131L242.646 122.116L240.463 120.058ZM233.358 123.5L233.92 126.447L233.938 126.444L233.956 126.44L233.358 123.5ZM207.357 123.427L206.697 126.353L206.719 126.358L206.742 126.363L207.357 123.427ZM200.326 119.984L198.205 122.106L198.221 122.122L198.237 122.137L200.326 119.984ZM196.957 112.88L194 113.388L194.005 113.415L194.01 113.441L196.957 112.88ZM196.151 73.2559V70.2559H193.151V73.2559H196.151ZM217.172 73.2559H220.172V70.2559H217.172V73.2559ZM217.978 106.947L215.418 108.512L215.438 108.545L215.459 108.577L217.978 106.947ZM222.812 72.6699L220.183 74.1157L220.199 74.1445L220.215 74.173L222.812 72.6699ZM219.003 69.5205L217.489 72.1103L217.512 72.1238L217.535 72.1369L219.003 69.5205ZM205.6 61.6836L204.082 64.2712L204.085 64.2734L205.6 61.6836ZM197.03 12.4648L194.089 11.8765L194.084 11.8983L194.08 11.9202L197.03 12.4648ZM207.431 1.91797L208.001 4.86331L208.019 4.8598L208.037 4.85607L207.431 1.91797ZM242.733 9.6084L239.867 10.4936L239.875 10.519L239.883 10.5443L242.733 9.6084ZM241.345 25.2822V43.666H247.345V25.2822H241.345ZM244.345 40.666H223.617V46.666H244.345V40.666ZM226.617 43.666V22.2793H220.617V43.666H226.617ZM226.617 22.2793C226.617 20.3035 226.364 18.1955 225.284 16.6246L220.339 20.0238C220.305 19.9744 220.391 20.0801 220.476 20.4977C220.558 20.9016 220.617 21.483 220.617 22.2793H226.617ZM225.284 16.6246C224.029 14.799 222.066 14.1523 220.175 14.1523V20.1523C220.474 20.1523 220.564 20.2012 220.531 20.1867C220.513 20.1785 220.475 20.1586 220.432 20.1227C220.388 20.0866 220.357 20.05 220.339 20.0238L225.284 16.6246ZM220.175 14.1523C218.123 14.1523 216.38 15.1321 215.334 16.9179C214.433 18.4557 214.172 20.3757 214.172 22.2793H220.172C220.172 21.5623 220.225 21.015 220.304 20.6111C220.384 20.2023 220.476 20.0098 220.511 19.9503C220.535 19.9099 220.491 19.9971 220.345 20.0801C220.201 20.1622 220.111 20.1523 220.175 20.1523V14.1523ZM214.172 22.2793V41.1758H220.172V22.2793H214.172ZM214.172 41.1758C214.172 43.3562 214.449 45.4464 215.32 47.1088L220.635 44.3248C220.432 43.9364 220.172 42.9992 220.172 41.1758H214.172ZM215.349 47.1626C216.317 48.9235 218.268 50.3426 220.371 51.5442L223.348 46.3347C221.349 45.1926 220.712 44.4632 220.606 44.271L215.349 47.1626ZM220.365 51.5405L233.109 58.8647L236.098 53.6626L223.354 46.3384L220.365 51.5405ZM233.126 58.8744C235.469 60.2006 237.134 61.6001 238.248 63.0215L242.971 59.3203C241.253 57.1284 238.914 55.2565 236.081 53.6529L233.126 58.8744ZM238.279 63.0603C239.481 64.5421 240.24 66.0874 240.617 67.7098L246.461 66.3507C245.862 63.7739 244.668 61.4129 242.94 59.2815L238.279 63.0603ZM240.633 67.7738C241.089 69.5558 241.345 71.8532 241.345 74.7207H247.345C247.345 71.5336 247.064 68.704 246.445 66.2868L240.633 67.7738ZM241.345 74.7207V100.136H247.345V74.7207H241.345ZM241.345 100.136C241.345 105.752 241.1 109.879 240.652 112.614L246.573 113.585C247.101 110.363 247.345 105.848 247.345 100.136H241.345ZM240.653 112.606C240.237 115.104 239.387 116.825 238.28 118L242.646 122.116C244.761 119.872 246.011 116.955 246.571 113.593L240.653 112.606ZM238.31 117.968C237.252 119.059 235.512 120.001 232.761 120.56L233.956 126.44C237.455 125.729 240.451 124.377 242.616 122.147L238.31 117.968ZM232.797 120.553C229.999 121.086 225.826 121.379 220.175 121.379V127.379C225.949 127.379 230.566 127.086 233.92 126.447L232.797 120.553ZM220.175 121.379C214.73 121.379 210.699 121.062 207.973 120.491L206.742 126.363C210.07 127.061 214.584 127.379 220.175 127.379V121.379ZM208.018 120.5C205.351 119.898 203.566 118.949 202.416 117.832L198.237 122.137C200.406 124.243 203.309 125.588 206.697 126.353L208.018 120.5ZM202.447 117.863C201.334 116.749 200.414 114.997 199.904 112.319L194.01 113.441C194.672 116.915 195.998 119.899 198.205 122.106L202.447 117.863ZM199.914 112.372C199.418 109.49 199.151 105.436 199.151 100.136H193.151C193.151 105.578 193.421 110.019 194 113.388L199.914 112.372ZM199.151 100.136V73.2559H193.151V100.136H199.151ZM196.151 76.2559H217.172V70.2559H196.151V76.2559ZM214.172 73.2559V102.919H220.172V73.2559H214.172ZM214.172 102.919C214.172 104.915 214.449 106.927 215.418 108.512L220.537 105.383C220.432 105.21 220.172 104.536 220.172 102.919H214.172ZM215.459 108.577C216.682 110.468 218.649 111.192 220.614 111.192V105.192C220.337 105.192 220.271 105.145 220.321 105.168C220.347 105.181 220.385 105.204 220.425 105.239C220.465 105.274 220.488 105.305 220.496 105.318L215.459 108.577ZM220.614 111.192C222.707 111.192 224.446 110.162 225.473 108.359C226.358 106.806 226.617 104.863 226.617 102.919H220.617C220.617 103.664 220.563 104.238 220.482 104.667C220.4 105.1 220.302 105.314 220.26 105.39C220.227 105.447 220.264 105.361 220.413 105.274C220.562 105.186 220.664 105.192 220.614 105.192V111.192ZM226.617 102.919V77.1377H220.617V102.919H226.617ZM226.617 77.1377C226.617 74.9609 226.356 72.805 225.408 71.1668L220.215 74.173C220.341 74.3903 220.617 75.2129 220.617 77.1377H226.617ZM225.44 71.2242C224.47 69.4596 222.542 68.0662 220.471 66.9041L217.535 72.1369C219.467 73.2209 220.079 73.9271 220.183 74.1157L225.44 71.2242ZM220.517 66.9307L207.114 59.0938L204.085 64.2734L217.489 72.1103L220.517 66.9307ZM207.118 59.096C203.834 57.1695 201.869 55.0303 200.872 52.7789L195.386 55.2074C197.026 58.9131 200.041 61.9008 204.082 64.2712L207.118 59.096ZM200.872 52.7789C199.777 50.3056 199.151 46.9714 199.151 42.6406H193.151C193.151 47.4895 193.844 51.7237 195.386 55.2074L200.872 52.7789ZM199.151 42.6406V25.2822H193.151V42.6406H199.151ZM199.151 25.2822C199.151 19.9908 199.442 15.9248 199.98 13.0095L194.08 11.9202C193.446 15.3526 193.151 19.8315 193.151 25.2822H199.151ZM199.972 13.0532C200.537 10.2263 201.47 8.45923 202.521 7.40843L198.278 3.16579C196.106 5.33764 194.793 8.35578 194.089 11.8765L199.972 13.0532ZM202.521 7.40843C203.643 6.28584 205.379 5.37066 208.001 4.86331L206.861 -1.02737C203.427 -0.36285 200.476 0.968068 198.278 3.16579L202.521 7.40843ZM208.037 4.85607C210.818 4.2821 214.879 3.96582 220.321 3.96582V-2.03418C214.728 -2.03418 210.195 -1.7157 206.824 -1.02013L208.037 4.85607ZM220.321 3.96582C227.644 3.96582 232.505 4.58718 235.239 5.60758L237.337 -0.0138328C233.529 -1.43483 227.744 -2.03418 220.321 -2.03418V3.96582ZM235.239 5.60758C237.644 6.50488 239.118 8.0673 239.867 10.4936L245.6 8.72318C244.298 4.50887 241.475 1.53028 237.337 -0.0138328L235.239 5.60758ZM239.883 10.5443C240.8 13.3356 241.345 18.155 241.345 25.2822H247.345C247.345 18.054 246.816 12.4242 245.584 8.67249L239.883 10.5443ZM251.777 1.69824V-1.30176H248.777V1.69824H251.777ZM293.086 1.69824H296.086V-1.30176H293.086V1.69824ZM293.086 17.8848V20.8848H296.086V17.8848H293.086ZM282.832 17.8848V14.8848H279.832V17.8848H282.832ZM282.832 123.5V126.5H285.832V123.5H282.832ZM262.031 123.5H259.031V126.5H262.031V123.5ZM262.031 17.8848H265.031V14.8848H262.031V17.8848ZM251.777 17.8848H248.777V20.8848H251.777V17.8848ZM251.777 4.69824H293.086V-1.30176H251.777V4.69824ZM290.086 1.69824V17.8848H296.086V1.69824H290.086ZM293.086 14.8848H282.832V20.8848H293.086V14.8848ZM279.832 17.8848V123.5H285.832V17.8848H279.832ZM282.832 120.5H262.031V126.5H282.832V120.5ZM265.031 123.5V17.8848H259.031V123.5H265.031ZM262.031 14.8848H251.777V20.8848H262.031V14.8848ZM254.777 17.8848V1.69824H248.777V17.8848H254.777ZM301.178 1.69824V-1.30176H298.178V1.69824H301.178ZM334.43 1.69824H337.43V-1.30176H334.43V1.69824ZM334.43 17.5918V20.5918H337.43V17.5918H334.43ZM321.979 17.5918V14.5918H318.979V17.5918H321.979ZM321.979 48.6465H318.979V51.6465H321.979V48.6465ZM334.43 48.6465H337.43V45.6465H334.43V48.6465ZM334.43 64.6865V67.6865H337.43V64.6865H334.43ZM321.979 64.6865V61.6865H318.979V64.6865H321.979ZM321.979 107.46H318.979V110.46H321.979V107.46ZM334.43 107.46H337.43V104.46H334.43V107.46ZM334.43 123.5V126.5H337.43V123.5H334.43ZM301.178 123.5H298.178V126.5H301.178V123.5ZM301.178 4.69824H334.43V-1.30176H301.178V4.69824ZM331.43 1.69824V17.5918H337.43V1.69824H331.43ZM334.43 14.5918H321.979V20.5918H334.43V14.5918ZM318.979 17.5918V48.6465H324.979V17.5918H318.979ZM321.979 51.6465H334.43V45.6465H321.979V51.6465ZM331.43 48.6465V64.6865H337.43V48.6465H331.43ZM334.43 61.6865H321.979V67.6865H334.43V61.6865ZM318.979 64.6865V107.46H324.979V64.6865H318.979ZM321.979 110.46H334.43V104.46H321.979V110.46ZM331.43 107.46V123.5H337.43V107.46H331.43ZM334.43 120.5H301.178V126.5H334.43V120.5ZM304.178 123.5V1.69824H298.178V123.5H304.178ZM345.891 1.69824V-1.30176H342.891V1.69824H345.891ZM386.027 3.89551L384.77 6.61939L384.788 6.6274L384.805 6.6352L386.027 3.89551ZM392.399 11.293L389.53 12.1696L389.534 12.1809L392.399 11.293ZM393.352 52.3818L390.397 51.8605L390.392 51.8887L390.388 51.9169L393.352 52.3818ZM390.715 58.8271L393.083 60.669L393.095 60.6533L393.107 60.6375L390.715 58.8271ZM384.562 63.3682L383.299 60.6471L376.791 63.6689L383.513 66.1787L384.562 63.3682ZM392.033 69.8135L389.297 71.0446L389.301 71.0532L389.305 71.0619L392.033 69.8135ZM394.011 123.5V126.5H397.011V123.5H394.011ZM373.283 123.5H370.283V126.5H373.283V123.5ZM367.497 72.8896V75.8896H367.794L368.085 75.8314L367.497 72.8896ZM366.691 72.9629L366.198 70.0037L363.691 70.4215V72.9629H366.691ZM366.691 123.5V126.5H369.691V123.5H366.691ZM345.891 123.5H342.891V126.5H345.891V123.5ZM366.691 17.5918V14.5918H363.691V17.5918H366.691ZM366.691 54.7988H363.691V57.7988H366.691V54.7988ZM367.717 54.8721L367.128 57.8138L367.42 57.8721H367.717V54.8721ZM368.522 54.9453L367.934 57.8871L368.225 57.9453H368.522V54.9453ZM372.331 53.627L369.899 51.8705L369.866 51.9161L369.835 51.9629L372.331 53.627ZM372.478 19.0566L369.794 20.3983L369.835 20.4803L369.881 20.5597L372.478 19.0566ZM345.891 4.69824H371.379V-1.30176H345.891V4.69824ZM371.379 4.69824C377.854 4.69824 382.202 5.4342 384.77 6.61939L387.285 1.17163C383.505 -0.572867 378.087 -1.30176 371.379 -1.30176V4.69824ZM384.805 6.6352C387.136 7.67506 388.693 9.4295 389.53 12.1696L395.268 10.4163C393.957 6.12519 391.267 2.94799 387.25 1.15581L384.805 6.6352ZM389.534 12.1809C390.474 15.2139 391.011 19.9088 391.011 26.4541H397.011C397.011 19.7181 396.474 14.3056 395.265 10.405L389.534 12.1809ZM391.011 26.4541V42.3477H397.011V26.4541H391.011ZM391.011 42.3477C391.011 46.4702 390.793 49.6176 390.397 51.8605L396.306 52.9032C396.789 50.1656 397.011 46.6236 397.011 42.3477H391.011ZM390.388 51.9169C390.065 53.9744 389.359 55.6475 388.323 57.0168L393.107 60.6375C394.805 58.3935 395.857 55.7697 396.315 52.8467L390.388 51.9169ZM388.347 56.9853C387.358 58.2571 385.747 59.5109 383.299 60.6471L385.826 66.0892C388.847 64.6864 391.338 62.9128 393.083 60.669L388.347 56.9853ZM383.513 66.1787C386.598 67.3305 388.377 68.9987 389.297 71.0446L394.769 68.5824C393.053 64.7689 389.851 62.1402 385.612 60.5576L383.513 66.1787ZM389.305 71.0619C390.362 73.3715 391.011 76.9721 391.011 82.1182H397.011C397.011 76.6197 396.341 72.0172 394.761 68.5651L389.305 71.0619ZM391.011 82.1182V123.5H397.011V82.1182H391.011ZM394.011 120.5H373.283V126.5H394.011V120.5ZM376.283 123.5V78.3828H370.283V123.5H376.283ZM376.283 78.3828C376.283 76.1528 375.921 73.7613 374.434 72.0767L369.935 76.0464C369.897 76.0033 369.997 76.0939 370.101 76.5036C370.204 76.9104 370.283 77.5198 370.283 78.3828H376.283ZM374.434 72.0767C372.857 70.2891 370.514 69.8164 368.376 69.8164V75.8164C369.067 75.8164 369.502 75.8978 369.751 75.9792C369.982 76.0548 369.989 76.108 369.935 76.0464L374.434 72.0767ZM368.376 69.8164C367.904 69.8164 367.403 69.849 366.909 69.9479L368.085 75.8314C368.078 75.833 368.097 75.8287 368.149 75.8244C368.201 75.8201 368.275 75.8164 368.376 75.8164V69.8164ZM367.497 69.8896C367.057 69.8896 366.621 69.9333 366.198 70.0037L367.185 75.9221C367.348 75.8948 367.449 75.8896 367.497 75.8896V69.8896ZM363.691 72.9629V123.5H369.691V72.9629H363.691ZM366.691 120.5H345.891V126.5H366.691V120.5ZM348.891 123.5V1.69824H342.891V123.5H348.891ZM363.691 17.5918V54.7988H369.691V17.5918H363.691ZM366.691 57.7988C366.859 57.7988 366.98 57.8036 367.064 57.8095C367.152 57.8158 367.166 57.8214 367.128 57.8138L368.305 51.9303C367.774 51.8242 367.203 51.7988 366.691 51.7988V57.7988ZM367.717 57.8721C367.846 57.8721 367.914 57.883 367.934 57.8871L369.111 52.0036C368.643 51.9099 368.174 51.8721 367.717 51.8721V57.8721ZM368.522 57.9453C370.658 57.9453 373.347 57.511 374.827 55.2911L369.835 51.9629C369.994 51.7241 370.144 51.7165 369.958 51.7808C369.747 51.8538 369.303 51.9453 368.522 51.9453V57.9453ZM374.763 55.3834C375.441 54.4454 375.792 53.3305 375.992 52.286C376.198 51.2084 376.283 49.9807 376.283 48.6465H370.283C370.283 49.7536 370.21 50.5767 370.099 51.1593C369.981 51.7749 369.856 51.9296 369.899 51.8705L374.763 55.3834ZM376.283 48.6465V25.2822H370.283V48.6465H376.283ZM376.283 25.2822C376.283 23.6029 376.214 22.1378 376.057 20.9238C375.911 19.7955 375.652 18.5526 375.074 17.5535L369.881 20.5597C369.84 20.4884 369.984 20.747 370.107 21.6939C370.218 22.5551 370.283 23.7389 370.283 25.2822H376.283ZM375.161 17.715C374.435 16.2641 373.133 15.5023 371.961 15.112C370.798 14.7243 369.462 14.5918 368.083 14.5918V20.5918C369.146 20.5918 369.762 20.7034 370.064 20.8041C370.358 20.902 370.031 20.8726 369.794 20.3983L375.161 17.715ZM368.083 14.5918H366.691V20.5918H368.083V14.5918ZM436.049 1.69824V-1.30176H433.049V1.69824H436.049ZM454.652 1.69824L457.601 1.14688L457.143 -1.30176H454.652V1.69824ZM466.005 62.416L463.056 62.9674L463.514 65.416H466.005V62.416ZM466.957 62.416V65.416H469.975L469.957 62.3979L466.957 62.416ZM466.591 1.69824V-1.30176H463.573L463.591 1.71634L466.591 1.69824ZM484.608 1.69824H487.608V-1.30176H484.608V1.69824ZM484.608 123.5V126.5H487.608V123.5H484.608ZM466.151 123.5L463.201 124.044L463.654 126.5H466.151V123.5ZM454.652 61.0977L457.603 60.554L457.15 58.0977H454.652V61.0977ZM453.7 61.0977V58.0977H450.679L450.7 61.1188L453.7 61.0977ZM454.14 123.5V126.5H457.161L457.14 123.479L454.14 123.5ZM436.049 123.5H433.049V126.5H436.049V123.5ZM436.049 4.69824H454.652V-1.30176H436.049V4.69824ZM451.703 2.2496L463.056 62.9674L468.954 61.8647L457.601 1.14688L451.703 2.2496ZM466.005 65.416H466.957V59.416H466.005V65.416ZM469.957 62.3979L469.591 1.68015L463.591 1.71634L463.957 62.4341L469.957 62.3979ZM466.591 4.69824H484.608V-1.30176H466.591V4.69824ZM481.608 1.69824V123.5H487.608V1.69824H481.608ZM484.608 120.5H466.151V126.5H484.608V120.5ZM469.102 122.956L457.603 60.554L451.702 61.6413L463.201 124.044L469.102 122.956ZM454.652 58.0977H453.7V64.0977H454.652V58.0977ZM450.7 61.1188L451.14 123.521L457.14 123.479L456.7 61.0765L450.7 61.1188ZM454.14 120.5H436.049V126.5H454.14V120.5ZM439.049 123.5V1.69824H433.049V123.5H439.049ZM496.948 12.3184L493.996 11.786L493.992 11.8095L493.988 11.833L496.948 12.3184ZM500.098 5.36035L497.915 3.30231L497.913 3.30426L500.098 5.36035ZM507.129 1.91797L507.69 4.86498L507.713 4.8607L507.735 4.85607L507.129 1.91797ZM536.133 2.72363L535.108 5.54301L535.133 5.55229L535.159 5.5611L536.133 2.72363ZM517.749 106.874L515.23 108.504L515.253 108.539L515.277 108.574L517.749 106.874ZM522.803 106.874L520.217 105.353L520.202 105.378L520.188 105.403L522.803 106.874ZM522.803 18.3975L520.217 19.9185L520.237 19.9533L520.259 19.9875L522.803 18.3975ZM499.216 25.2822C499.216 19.666 499.46 15.5385 499.909 12.8037L493.988 11.833C493.46 15.0553 493.216 19.5703 493.216 25.2822H499.216ZM499.901 12.8508C500.368 10.2605 501.229 8.53592 502.282 7.41645L497.913 3.30426C495.842 5.50509 494.603 8.41923 493.996 11.786L499.901 12.8508ZM502.28 7.41839C503.335 6.30036 505.03 5.37167 507.69 4.86498L506.568 -1.02905C503.075 -0.363855 500.083 1.00237 497.915 3.30231L502.28 7.41839ZM507.735 4.85607C510.513 4.28282 514.644 3.96582 520.239 3.96582V-2.03418C514.506 -2.03418 509.897 -1.71642 506.523 -1.02013L507.735 4.85607ZM520.239 3.96582C527.571 3.96582 532.414 4.56348 535.108 5.54301L537.158 -0.0957475C533.406 -1.45996 527.654 -2.03418 520.239 -2.03418V3.96582ZM535.159 5.5611C537.537 6.37741 539.053 7.89691 539.883 10.3499L545.566 8.42746C544.15 4.23981 541.272 1.31594 537.107 -0.113834L535.159 5.5611ZM539.883 10.3499C540.839 13.1785 541.409 18.0601 541.409 25.2822H547.409C547.409 17.9535 546.856 12.2395 545.566 8.42746L539.883 10.3499ZM541.409 25.2822V99.916H547.409V25.2822H541.409ZM541.409 99.916C541.409 107.09 540.865 111.966 539.944 114.813L545.652 116.66C546.879 112.866 547.409 107.195 547.409 99.916H541.409ZM539.944 114.813C539.152 117.261 537.644 118.837 535.231 119.737L537.328 125.359C541.457 123.818 544.296 120.853 545.652 116.66L539.944 114.813ZM535.231 119.737C532.492 120.759 527.7 121.379 520.532 121.379V127.379C527.817 127.379 533.524 126.778 537.328 125.359L535.231 119.737ZM520.532 121.379C513.154 121.379 508.254 120.782 505.504 119.797L503.48 125.445C507.273 126.804 513.067 127.379 520.532 127.379V121.379ZM505.504 119.797C503.121 118.943 501.586 117.379 500.746 114.861L495.054 116.758C496.461 120.979 499.32 123.955 503.48 125.445L505.504 119.797ZM500.746 114.861C499.784 111.974 499.216 107.082 499.216 99.916H493.216C493.216 107.203 493.771 112.907 495.054 116.758L500.746 114.861ZM499.216 99.916V25.2822H493.216V99.916H499.216ZM513.943 22.4258V102.919H519.943V22.4258H513.943ZM513.943 102.919C513.943 104.892 514.212 106.931 515.23 108.504L520.268 105.244C520.268 105.245 520.262 105.235 520.25 105.212C520.239 105.189 520.224 105.155 520.206 105.107C520.169 105.009 520.125 104.864 520.084 104.664C520.001 104.256 519.943 103.685 519.943 102.919H513.943ZM515.277 108.574C516.532 110.399 518.494 111.046 520.386 111.046V105.046C520.086 105.046 519.997 104.997 520.029 105.011C520.048 105.02 520.085 105.04 520.129 105.076C520.172 105.112 520.203 105.148 520.221 105.174L515.277 108.574ZM520.386 111.046C522.258 111.046 524.282 110.364 525.417 108.345L520.188 105.403C520.22 105.347 520.272 105.274 520.348 105.202C520.425 105.13 520.501 105.082 520.56 105.053C520.671 105 520.653 105.046 520.386 105.046V111.046ZM525.389 108.395C526.295 106.854 526.535 104.866 526.535 102.919H520.535C520.535 104.585 520.287 105.234 520.217 105.353L525.389 108.395ZM526.535 102.919V22.4258H520.535V102.919H526.535ZM526.535 22.4258C526.535 20.4441 526.314 18.3551 525.347 16.8075L520.259 19.9875C520.229 19.9401 520.317 20.0662 520.4 20.5271C520.481 20.9675 520.535 21.5889 520.535 22.4258H526.535ZM525.389 16.8764C524.17 14.805 522.034 14.1523 520.093 14.1523V20.1523C520.267 20.1523 520.384 20.1663 520.453 20.1791C520.521 20.1918 520.533 20.2016 520.507 20.1897C520.478 20.1764 520.422 20.1452 520.358 20.0884C520.294 20.0311 520.247 19.9695 520.217 19.9185L525.389 16.8764ZM520.093 14.1523C518.035 14.1523 516.142 15.0543 515.053 17.0138L520.298 19.9276C520.301 19.9227 520.285 19.9517 520.243 19.9953C520.198 20.0404 520.143 20.0829 520.083 20.1156C519.957 20.1844 519.922 20.1523 520.093 20.1523V14.1523ZM515.053 17.0138C514.195 18.558 513.943 20.4885 513.943 22.4258H519.943C519.943 20.8474 520.18 20.1412 520.298 19.9276L515.053 17.0138ZM549.205 1.69824V-1.30176H545.871L546.222 2.01398L549.205 1.69824ZM569.42 1.69824L572.414 1.50254L572.23 -1.30176H569.42V1.69824ZM574.107 73.4023L571.114 73.598L571.297 76.4023H574.107V73.4023ZM575.133 73.4023V76.4023H577.909L578.124 73.6345L575.133 73.4023ZM580.699 1.69824V-1.30176H577.923L577.708 1.46605L580.699 1.69824ZM598.863 1.69824L601.851 1.42966L601.606 -1.30176H598.863V1.69824ZM605.309 73.4023L602.321 73.6709L602.566 76.4023H605.309V73.4023ZM606.334 73.4023V76.4023H609.182L609.33 73.5584L606.334 73.4023ZM610.069 1.69824V-1.30176H607.222L607.073 1.54217L610.069 1.69824ZM629.698 1.69824L632.685 1.98021L632.995 -1.30176H629.698V1.69824ZM618.199 123.5V126.5H620.929L621.186 123.782L618.199 123.5ZM596.739 123.5L593.75 123.751L593.981 126.5H596.739V123.5ZM590.733 51.9424L593.723 51.6915L593.492 48.9424H590.733V51.9424ZM589.708 51.9424V48.9424H586.944L586.718 51.6976L589.708 51.9424ZM583.849 123.5V126.5H586.613L586.839 123.745L583.849 123.5ZM562.096 123.5L559.112 123.816L559.396 126.5H562.096V123.5ZM549.205 4.69824H569.42V-1.30176H549.205V4.69824ZM566.426 1.89394L571.114 73.598L577.101 73.2066L572.414 1.50254L566.426 1.89394ZM574.107 76.4023H575.133V70.4023H574.107V76.4023ZM578.124 73.6345L583.69 1.93043L577.708 1.46605L572.142 73.1702L578.124 73.6345ZM580.699 4.69824H598.863V-1.30176H580.699V4.69824ZM595.875 1.96682L602.321 73.6709L608.297 73.1338L601.851 1.42966L595.875 1.96682ZM605.309 76.4023H606.334V70.4023H605.309V76.4023ZM609.33 73.5584L613.065 1.85431L607.073 1.54217L603.338 73.2463L609.33 73.5584ZM610.069 4.69824H629.698V-1.30176H610.069V4.69824ZM626.712 1.41627L615.213 123.218L621.186 123.782L632.685 1.98021L626.712 1.41627ZM618.199 120.5H596.739V126.5H618.199V120.5ZM599.729 123.249L593.723 51.6915L587.744 52.1933L593.75 123.751L599.729 123.249ZM590.733 48.9424H589.708V54.9424H590.733V48.9424ZM586.718 51.6976L580.859 123.255L586.839 123.745L592.698 52.1872L586.718 51.6976ZM583.849 120.5H562.096V126.5H583.849V120.5ZM565.079 123.184L552.188 1.38251L546.222 2.01398L559.112 123.816L565.079 123.184Z" fill="white" mask="url(#path-1-outside-1_129_1345)"/>
</svg>
